HIERARCHY
ROOT Hips
{
	OFFSET 0.000000 0.000000 0.000000
	CHANNELS 6 Xposition Yposition Zposition Zrotation Yrotation Xrotation 
	JOINT LeftUpLeg_virtual
	{
		OFFSET 0.000000 0.000000 0.000000
		CHANNELS 3 Zrotation Yrotation Xrotation
		JOINT LeftUpLeg
		{
			OFFSET 8.479694 -4.795517 -0.379053
			CHANNELS 3 Zrotation Yrotation Xrotation
			JOINT LeftLeg
			{
				OFFSET 0.485052 -32.551468 0.112863
				CHANNELS 3 Zrotation Yrotation Xrotation
				JOINT LeftFoot
				{
					OFFSET 0.438033 -32.635670 -3.012641
					CHANNELS 3 Zrotation Yrotation Xrotation
					JOINT LeftToeBase
					{
						OFFSET 0.970169 -13.225353 11.864223
						CHANNELS 3 Zrotation Yrotation Xrotation
						End Site
						{
							OFFSET 0.000000 0.000000 0.000000
						}
					}
				}
			}
		}
	}
	JOINT RightUpLeg_virtual
	{
		OFFSET 0.000000 0.000000 0.000000
		CHANNELS 3 Zrotation Yrotation Xrotation
		JOINT RightUpLeg
		{
			OFFSET -8.479694 -4.795517 -0.379053
			CHANNELS 3 Zrotation Yrotation Xrotation
			JOINT RightLeg
			{
				OFFSET -0.484100 -32.551483 0.112903
				CHANNELS 3 Zrotation Yrotation Xrotation
				JOINT RightFoot
				{
					OFFSET -0.438985 -32.635651 -3.012681
					CHANNELS 3 Zrotation Yrotation Xrotation
					JOINT RightToeBase
					{
						OFFSET -0.970169 -13.225354 11.864223
						CHANNELS 3 Zrotation Yrotation Xrotation
						End Site
						{
							OFFSET 0.000000 0.000000 0.000000
						}
					}
				}
			}
		}
	}
	JOINT Spine_virtual
	{
		OFFSET 0.000000 0.000000 0.000000
		CHANNELS 3 Zrotation Yrotation Xrotation
		JOINT Spine
		{
			OFFSET 0.000000 7.722015 1.166203
			CHANNELS 3 Zrotation Yrotation Xrotation
			JOINT Spine1
			{
				OFFSET 0.000000 12.024086 0.248766
				CHANNELS 3 Zrotation Yrotation Xrotation
				JOINT Spine2
				{
					OFFSET -0.000000 11.503036 -0.491240
					CHANNELS 3 Zrotation Yrotation Xrotation
					JOINT Neck_virtual
					{
						OFFSET 0.000000 0.000000 0.000000
						CHANNELS 3 Zrotation Yrotation Xrotation
						JOINT Neck
						{
							OFFSET 0.000000 18.430687 -3.123054
							CHANNELS 3 Zrotation Yrotation Xrotation
							JOINT Head
							{
								OFFSET -0.000000 9.051071 1.034021
								CHANNELS 3 Zrotation Yrotation Xrotation
								End Site
								{
									OFFSET 0.000000 0.000000 0.000000
								}
							}
						}
					}
					JOINT LeftShoulder_virtual
					{
						OFFSET 0.000000 0.000000 0.000000
						CHANNELS 3 Zrotation Yrotation Xrotation
						JOINT LeftShoulder
						{
							OFFSET 6.197824 13.665230 -4.064723
							CHANNELS 3 Zrotation Yrotation Xrotation
							JOINT LeftArm
							{
								OFFSET 7.778132 -0.187073 -1.709282
								CHANNELS 3 Zrotation Yrotation Xrotation
								JOINT LeftForeArm
								{
									OFFSET 21.954697 0.000000 -2.041093
									CHANNELS 3 Zrotation Yrotation Xrotation
									JOINT LeftHand
									{
										OFFSET 22.992908 0.000000 -0.870901
										CHANNELS 3 Zrotation Yrotation Xrotation
										End Site
										{
											OFFSET 0.000000 0.000000 0.000000
										}
									}
								}
							}
						}
					}
					JOINT RightShoulder_virtual
					{
						OFFSET 0.000000 0.000000 0.000000
						CHANNELS 3 Zrotation Yrotation Xrotation
						JOINT RightShoulder
						{
							OFFSET -6.197824 13.665230 -4.064723
							CHANNELS 3 Zrotation Yrotation Xrotation
							JOINT RightArm
							{
								OFFSET -7.778132 -0.187073 -1.709282
								CHANNELS 3 Zrotation Yrotation Xrotation
								JOINT RightForeArm
								{
									OFFSET -21.954697 0.000000 -2.041093
									CHANNELS 3 Zrotation Yrotation Xrotation
									JOINT RightHand
									{
										OFFSET -22.992908 0.000000 -0.870901
										CHANNELS 3 Zrotation Yrotation Xrotation
										End Site
										{
											OFFSET 0.000000 0.000000 0.000000
										}
									}
								}
							}
						}
					}
				}
			}
		}
	}
}
MOTION
Frames: 7
Frame Time: 0.033333
-26.632174 81.417831 30.554152 179.990006 8.829618 -179.979255 -4.267145 -2.006653 7.697107 0.915929 5.914516 -24.427919 5.479601 4.520787 29.680720 -1.633335 -7.527421 -10.041829 0.000000 0.000000 0.000000 -0.595637 -2.729795 7.754089 -2.071978 0.323604 -20.667063 -1.244423 5.819343 27.225559 9.845331 7.099038 -7.700172 0.000000 0.000000 0.000000 1.150144 0.816508 -5.188518 0.865274 -1.742163 -4.423166 -1.809327 -1.585372 8.661025 -0.027399 -0.003455 0.022175 -2.138586 -0.165633 8.858237 -2.600202 -0.349148 -9.216857 0.000000 0.000000 0.000000 -0.132687 0.319910 6.391174 -7.864210 0.166390 1.541271 -63.730624 -3.658961 17.030920 1.441254 -40.822183 11.283295 0.000000 0.000000 0.000000 -5.020652 1.953050 5.425839 27.538098 2.947559 5.587888 54.824409 4.360166 16.700840 -7.327027 34.498561 -4.069482 0.000000 0.000000 0.000000 
-26.388491 81.405365 30.464582 179.980689 8.703592 179.975894 -4.325480 -1.768302 7.731329 0.814859 6.451797 -24.419352 5.433898 4.954638 29.747929 -1.484500 -7.335934 -10.327452 0.000000 0.000000 0.000000 -0.600937 -2.683194 7.834263 -2.082372 0.742548 -20.645174 -1.298478 6.169984 26.940740 10.088140 7.368026 -7.869758 0.000000 0.000000 0.000000 1.133800 0.860214 -5.186598 0.835709 -1.723938 -4.413153 -1.813777 -1.597743 8.680569 -0.020842 -0.039636 0.027835 -2.142087 -0.174217 8.835004 -2.604082 -0.351226 -9.210541 0.000000 0.000000 0.000000 -0.109319 0.350454 6.372961 -7.780795 0.225333 1.527485 -63.628123 -3.638970 16.923098 1.519959 -40.708556 11.196299 0.000000 0.000000 0.000000 -5.026352 1.959077 5.433392 27.675710 2.910081 5.546829 54.892113 4.291797 16.931042 -7.293916 34.289032 -4.039078 0.000000 0.000000 0.000000 
-26.077084 81.399994 30.369816 179.996549 8.617108 179.986099 -4.258334 -1.722891 7.779849 1.054980 6.420115 -24.352071 5.401178 4.886102 29.695535 -1.617067 -7.474586 -10.413685 0.000000 0.000000 0.000000 -0.598371 -2.608805 7.911073 -1.823307 0.679401 -20.651408 -1.263265 6.053726 27.036122 9.926162 7.282911 -8.005289 0.000000 0.000000 0.000000 1.096442 0.938356 -5.204546 0.774545 -1.712601 -4.388175 -1.759205 -1.597228 8.689942 0.035961 -0.019900 0.006121 -2.181194 -0.207241 8.884476 -2.563653 -0.434363 -9.185393 0.000000 0.000000 0.000000 -0.138602 0.310242 6.456057 -7.687701 0.208142 1.601153 -63.659658 -3.434856 16.541687 1.607214 -40.385133 11.211002 0.000000 0.000000 0.000000 -5.046809 1.878414 5.459095 27.780720 2.860053 5.551535 54.886386 4.099799 17.209713 -7.235759 33.865205 -4.055218 0.000000 0.000000 0.000000 
-25.760910 81.385674 30.308125 179.999404 8.511343 -179.971769 -4.238883 -1.768922 7.802184 1.313182 6.345190 -24.277644 5.360102 4.840470 29.687994 -1.714166 -7.590461 -10.519865 0.000000 0.000000 0.000000 -0.561185 -2.641826 7.946444 -1.597824 0.568241 -20.725060 -1.245427 5.970008 27.169553 9.815496 7.284491 -8.128243 0.000000 0.000000 0.000000 1.044722 0.949201 -5.218613 0.712264 -1.649749 -4.307990 -1.709481 -1.588615 8.701405 0.013421 -0.033378 0.040663 -2.109993 -0.206602 8.887197 -2.498422 -0.459830 -9.170022 0.000000 0.000000 0.000000 -0.068195 0.238544 6.448793 -7.630901 0.175983 1.667592 -63.677218 -2.941999 15.963586 1.632520 -39.910824 11.250203 0.000000 0.000000 0.000000 -4.995845 1.851475 5.423942 27.918557 2.719087 5.557950 54.831215 3.813372 17.526223 -7.221366 33.232033 -4.155589 0.000000 0.000000 0.000000 
-25.450195 81.354942 30.275965 179.979105 8.393207 -179.961223 -4.244853 -1.815037 7.801332 1.588375 6.311259 -24.233817 5.335866 4.767797 29.757898 -1.791206 -7.731825 -10.651675 0.000000 0.000000 0.000000 -0.621535 -2.671194 7.973945 -1.325210 0.501168 -20.799642 -1.196725 5.858907 27.404759 9.638856 7.276983 -8.268679 0.000000 0.000000 0.000000 0.998537 0.901162 -5.189313 0.597656 -1.628614 -4.193603 -1.683654 -1.633070 8.712158 -0.013229 -0.056943 -0.004586 -2.012623 -0.239276 8.975996 -2.445698 -0.349253 -9.141251 0.000000 0.000000 0.000000 0.031760 0.318745 6.484314 -7.661813 0.164365 1.807686 -63.788066 -2.308580 15.535252 1.778732 -39.300840 11.189044 0.000000 0.000000 0.000000 -4.845384 1.951572 5.545908 27.960406 2.700243 5.617560 54.803297 3.335208 17.747801 -7.126318 32.528018 -4.151265 0.000000 0.000000 0.000000 
-25.127768 81.324509 30.289009 179.978545 8.238811 179.976605 -4.226117 -1.876792 7.857226 1.878720 6.162283 -24.201549 5.286670 4.734659 29.781592 -1.830304 -7.894391 -10.764294 0.000000 0.000000 0.000000 -0.609634 -2.770685 8.025374 -1.074388 0.356720 -20.864064 -1.151321 5.753388 27.648182 9.469951 7.336805 -8.366380 0.000000 0.000000 0.000000 1.007446 0.894225 -5.084205 0.517987 -1.540227 -3.997119 -1.644469 -1.619422 8.738973 0.036801 -0.017559 -0.014759 -1.958223 -0.346643 8.963603 -2.310010 -0.379239 -9.180280 0.000000 0.000000 0.000000 0.035478 0.203548 6.483417 -7.681677 0.104968 1.929083 -63.823781 -1.549736 15.033415 1.840983 -38.613365 11.208636 0.000000 0.000000 0.000000 -4.820829 1.848539 5.543386 28.010215 2.434689 5.565437 54.667294 2.762272 17.762978 -7.034868 31.709099 -4.176595 0.000000 0.000000 0.000000 
-24.765615 81.301193 30.330723 179.913439 8.073915 179.964379 -4.240422 -1.931119 7.943623 2.180433 5.899322 -24.250896 5.236768 4.755283 29.780711 -1.815309 -8.022289 -10.777547 0.000000 0.000000 0.000000 -0.578133 -2.883623 8.066447 -0.881726 0.102916 -21.010948 -1.101314 5.698832 27.951099 9.317573 7.474028 -8.440757 0.000000 0.000000 0.000000 0.991937 0.879545 -4.975643 0.419921 -1.471686 -3.801472 -1.596596 -1.694082 8.732079 -0.010962 0.049034 -0.039926 -1.881893 -0.276207 8.989737 -2.170170 -0.471054 -9.270606 0.000000 0.000000 0.000000 0.086601 0.269935 6.529329 -7.683434 0.035783 2.123351 -63.776017 -0.885650 14.407495 1.849248 -37.865647 11.260601 0.000000 0.000000 0.000000 -4.718386 1.871254 5.609803 28.058429 2.259088 5.556449 54.633648 2.060426 17.567735 -6.929470 30.817349 -4.260679 0.000000 0.000000 0.000000 
